<svg width="28" height="28" viewBox="0 0 32 32" fill="none" xmlns="http://www.w3.org/2000/svg">
  <path d="M8 8 Q6 8 6 10 Q6 14 6 16 Q6 18 6 22 Q6 24 8 24 Q12 24 16 24 Q20 24 24 20 Q24 16 24 16 Q24 12 20 8 Q16 4 12 4 Q8 4 6 6 Q6 8 8 8" 
        fill="#1e3a5f" stroke="#2563eb" stroke-width="0.5" stroke-linecap="round"/>
  
  <g>
    <path d="M12 10 Q14 8 16 8 Q18 8 20 10 L20 12 Q18 10 16 10 Q14 10 12 12 Z" 
          fill="#60a5fa" stroke="none"/>
    <rect x="12" y="12" width="3" height="10" rx="0.5" fill="#60a5fa"/>
    <rect x="12" y="12" width="6" height="2.5" rx="0.5" fill="#60a5fa"/>
    <rect x="13" y="16" width="1.5" height="4" fill="#1e3a5f"/>
  </g>
  
  <path d="M8 8 Q6 8 6 10 Q6 14 6 16 Q6 18 6 22 Q6 24 8 24 Q12 24 16 24 Q20 24 24 20 Q24 16 24 16 Q24 12 20 8 Q16 4 12 4 Q8 4 6 6 Q6 8 8 8" 
        fill="none" stroke="#60a5fa30" stroke-width="1" stroke-linecap="round"/>
</svg>
