<?xml version="1.0" encoding="UTF-8"?>
<svg version="1.1" xmlns="http://www.w3.org/2000/svg" width="296" height="344">
<path d="M0 0 C97.68 0 195.36 0 296 0 C296 113.52 296 227.04 296 344 C198.32 344 100.64 344 0 344 C0 230.48 0 116.96 0 0 Z " fill="#F9FBFB" transform="translate(0,0)"/>
<path d="M0 0 C9.95428458 8.16222524 19.06752688 16.91779761 26.67578125 27.34765625 C24.57588917 29.44754833 23.35264563 29.99105339 20.61254883 30.99584961 C19.7744014 31.3063475 18.93625397 31.6168454 18.07270813 31.93675232 C16.71027229 32.43212242 16.71027229 32.43212242 15.3203125 32.9375 C14.38531418 33.2826918 13.45031586 33.62788361 12.48698425 33.98353577 C9.48930633 35.08929076 6.48895494 36.18755973 3.48828125 37.28515625 C0.50594154 38.38043924 -2.47580351 39.47730354 -5.4568634 40.57606506 C-7.31252994 41.25956004 -9.16900934 41.94085342 -11.02641296 42.61961365 C-14.83531938 44.01866762 -18.60304684 45.44156465 -22.31347656 47.0859375 C-25.32421875 48.34765625 -25.32421875 48.34765625 -27.515625 48.2578125 C-29.84333688 47.08641538 -31.40040554 45.61074368 -33.26171875 43.78515625 C-52.88709664 25.91775195 -78.93674258 20.50269744 -104.73242188 21.21582031 C-110.19887223 21.49388015 -115.14506863 22.63853671 -120.32421875 24.34765625 C-121.23880859 24.63769531 -121.23880859 24.63769531 -122.171875 24.93359375 C-137.26071832 29.79322122 -150.00113752 37.19078539 -161.32421875 48.34765625 C-161.93394531 48.88519531 -162.54367188 49.42273438 -163.171875 49.9765625 C-177.31956807 62.83517192 -187.14009559 85.54653182 -188.23046875 104.35546875 C-188.276875 105.83660156 -188.276875 105.83660156 -188.32421875 107.34765625 C-188.37578125 108.56195313 -188.42734375 109.77625 -188.48046875 111.02734375 C-189.21597857 135.83241253 -180.9404632 160.0732758 -165.32421875 179.34765625 C-164.710625 180.12496094 -164.09703125 180.90226563 -163.46484375 181.703125 C-155.93456714 190.74256862 -146.58102586 196.89609675 -136.32421875 202.41015625 C-135.59404541 202.80460938 -134.86387207 203.1990625 -134.11157227 203.60546875 C-133.41862061 203.96511719 -132.72566895 204.32476562 -132.01171875 204.6953125 C-131.08939453 205.1749646 -131.08939453 205.1749646 -130.1484375 205.66430664 C-128.02458517 206.58151878 -128.02458517 206.58151878 -124.32421875 206.34765625 C-124.36180298 205.46134521 -124.39938721 204.57503418 -124.43811035 203.66186523 C-124.79632537 195.19304489 -125.14958831 186.72403425 -125.49767303 178.25479126 C-125.67666966 173.90363342 -125.85739521 169.5525636 -126.04248047 165.20166016 C-126.52142135 153.91856683 -126.95671764 142.63494859 -127.32421875 131.34765625 C-127.36841949 130.04190643 -127.41262024 128.73615662 -127.4581604 127.39083862 C-127.56149242 124.01042971 -127.63265848 120.63149614 -127.6875 117.25 C-127.73318115 115.82608948 -127.73318115 115.82608948 -127.77978516 114.37341309 C-127.81023315 110.02361203 -127.66991668 107.90308741 -125.31860352 104.12524414 C-122.82190173 101.72789254 -120.30160783 100.10375705 -117.32421875 98.34765625 C-115.48922595 96.89648716 -113.67673568 95.41645292 -111.88671875 93.91015625 C-110.97019531 93.16894531 -110.05367187 92.42773438 -109.109375 91.6640625 C-105.32231755 88.51437797 -101.72378917 85.17624192 -98.1015625 81.83984375 C-94.42219121 78.53824194 -90.59718287 75.43888829 -86.734375 72.35546875 C-84.45963641 70.46046772 -82.38039476 68.47539291 -80.32421875 66.34765625 C-77.69664519 67.60916463 -75.28462751 68.97202219 -72.890625 70.6328125 C-72.24867188 71.07625 -71.60671875 71.5196875 -70.9453125 71.9765625 C-70.26597656 72.44964844 -69.58664063 72.92273438 -68.88671875 73.41015625 C-68.17515625 73.90257813 -67.46359375 74.395 -66.73046875 74.90234375 C-64.59344951 76.38181861 -62.45871024 77.86453779 -60.32421875 79.34765625 C-59.19811569 80.1278915 -58.07183052 80.907864 -56.9453125 81.6875 C-54.85090493 83.1370712 -52.75716304 84.58760465 -50.6640625 86.0390625 C-47.59371282 88.16497298 -44.51314001 90.2757161 -41.4296875 92.38256836 C-40.07298025 93.31400755 -38.72006259 94.25099193 -37.37109375 95.19360352 C-34.03497954 97.5220007 -30.68600548 99.75672535 -27.1953125 101.84765625 C-18.02066261 107.50090623 -18.02066261 107.50090623 -16.28125 112.11328125 C-15.75403488 122.7715762 -20.47990217 135.51031448 -27.453125 143.48828125 C-37.56248515 153.53432599 -49.22788308 156.32287701 -63.2265625 156.6640625 C-64.31040977 156.69523415 -64.31040977 156.69523415 -65.41615295 156.72703552 C-67.69792245 156.79181051 -69.97979542 156.85107655 -72.26171875 156.91015625 C-73.81967166 156.95341022 -75.37761455 156.99702656 -76.93554688 157.04101562 C-80.73166797 157.14741664 -84.52789189 157.24888124 -88.32421875 157.34765625 C-88.26363281 158.04101074 -88.20304688 158.73436523 -88.140625 159.44873047 C-87.55217104 166.29403429 -87.03460408 173.14135399 -86.56884766 179.99609375 C-86.35757069 182.89071476 -86.08977152 185.77220453 -85.8046875 188.66015625 C-85.25402267 195.85770469 -85.39233807 201.14531154 -90.26293945 206.84814453 C-92.50331863 209.17925994 -94.83339029 211.28544438 -97.32421875 213.34765625 C-86.83487281 213.79017553 -77.51634166 212.61257245 -67.32421875 210.34765625 C-66.40382812 210.1775 -65.4834375 210.00734375 -64.53515625 209.83203125 C-48.66603498 206.3929028 -33.28537047 196.03955142 -22.32421875 184.34765625 C-17.88362033 185.91243855 -14.07792442 188.25897999 -10.13671875 190.78515625 C-8.71669948 191.68446855 -7.2961036 192.58287089 -5.875 193.48046875 C-5.13459473 193.9487207 -4.39418945 194.41697266 -3.63134766 194.89941406 C1.01169962 197.8139703 5.70057044 200.65389891 10.38354492 203.50366211 C15.16881108 206.41835903 19.93086179 209.36771272 24.67578125 212.34765625 C24.34578125 213.66765625 24.01578125 214.98765625 23.67578125 216.34765625 C23.01578125 216.34765625 22.35578125 216.34765625 21.67578125 216.34765625 C21.40588379 216.94441162 21.13598633 217.54116699 20.85791016 218.15600586 C10.39510681 237.55389633 -20.76066795 252.67799162 -40.640625 259.2578125 C-53.29622677 263.00215279 -65.50871584 266.47530661 -78.79296875 266.55078125 C-79.59093872 266.55648132 -80.38890869 266.5621814 -81.21105957 266.5680542 C-82.89525041 266.57745598 -84.57945924 266.58401887 -86.26367188 266.58789062 C-88.78940702 266.59752348 -91.31430148 266.62856229 -93.83984375 266.66015625 C-104.08469269 266.72746511 -113.34053807 265.84093523 -123.32421875 263.34765625 C-124.6388208 263.03344727 -124.6388208 263.03344727 -125.97998047 262.71289062 C-165.04533691 253.03065567 -197.18662579 229.70205121 -219.15673828 196.13085938 C-220.11439857 194.66813442 -221.08990719 193.21710956 -222.0703125 191.76953125 C-241.70919593 161.32660084 -247.20263733 120.02186241 -239.83544922 85.02587891 C-237.35411783 73.66142548 -234.12980865 62.9633299 -229.32421875 52.34765625 C-228.90148682 51.39777832 -228.90148682 51.39777832 -228.47021484 50.42871094 C-224.77166697 42.21470788 -220.43057009 34.66623076 -215.26171875 27.28515625 C-214.77944824 26.59502441 -214.29717773 25.90489258 -213.80029297 25.19384766 C-210.81926551 21.06542102 -207.59772271 17.44676991 -203.9152832 13.92944336 C-202.33520741 12.35858084 -200.95450414 10.71966348 -199.57421875 8.97265625 C-183.73244578 -9.81055997 -158.91817494 -22.1913355 -135.69921875 -28.96484375 C-134.87752197 -29.20726807 -134.0558252 -29.44969238 -133.20922852 -29.69946289 C-87.16782541 -42.49702913 -36.7133815 -29.52593699 0 0 Z " fill="#15AFCA" transform="translate(247.32421875,49.65234375)"/>
<path d="M0 0 C9.95428458 8.16222524 19.06752688 16.91779761 26.67578125 27.34765625 C24.57588917 29.44754833 23.35264563 29.99105339 20.61254883 30.99584961 C19.7744014 31.3063475 18.93625397 31.6168454 18.07270813 31.93675232 C16.71027229 32.43212242 16.71027229 32.43212242 15.3203125 32.9375 C14.38531418 33.2826918 13.45031586 33.62788361 12.48698425 33.98353577 C9.48930633 35.08929076 6.48895494 36.18755973 3.48828125 37.28515625 C0.50594154 38.38043924 -2.47580351 39.47730354 -5.4568634 40.57606506 C-7.31252994 41.25956004 -9.16900934 41.94085342 -11.02641296 42.61961365 C-14.83531938 44.01866762 -18.60304684 45.44156465 -22.31347656 47.0859375 C-25.32421875 48.34765625 -25.32421875 48.34765625 -27.515625 48.2578125 C-29.84333688 47.08641538 -31.40040554 45.61074368 -33.26171875 43.78515625 C-52.88709664 25.91775195 -78.93674258 20.50269744 -104.73242188 21.21582031 C-110.19887223 21.49388015 -115.14506863 22.63853671 -120.32421875 24.34765625 C-121.23880859 24.63769531 -121.23880859 24.63769531 -122.171875 24.93359375 C-137.26071832 29.79322122 -150.00113752 37.19078539 -161.32421875 48.34765625 C-161.93394531 48.88519531 -162.54367188 49.42273438 -163.171875 49.9765625 C-175.86323861 61.51153762 -181.93347572 78.62370049 -187.03515625 94.48828125 C-188.13237903 97.85035044 -189.37550154 101.14066899 -190.6574707 104.43603516 C-196.09281316 118.41741869 -198.52235184 131.99063128 -198.51171875 146.97265625 C-198.51163818 148.028479 -198.51155762 149.08430176 -198.51147461 150.17211914 C-199.14240978 163.03517312 -199.14240978 163.03517312 -195.32421875 174.34765625 C-195.20046875 175.56453125 -195.07671875 176.78140625 -194.94921875 178.03515625 C-194.5043146 182.01104568 -193.17826686 184.78788387 -191.32421875 188.34765625 C-190.86781233 190.23848285 -190.41245157 192.12958931 -189.96875 194.0234375 C-185.13885214 211.44034191 -173.29335127 227.09743351 -160.32421875 239.34765625 C-159.51984375 240.19328125 -158.71546875 241.03890625 -157.88671875 241.91015625 C-151.52247869 247.96394558 -144.56140008 252.55612106 -136.92578125 256.8671875 C-135.01521729 257.95443036 -133.15328251 259.12828041 -131.32421875 260.34765625 C-159.72233968 258.366392 -188.68371547 233.81023079 -206.8125 213.43359375 C-211.29877989 207.92167911 -215.26728338 202.0740987 -219.15673828 196.13085938 C-220.11439857 194.66813442 -221.08990719 193.21710956 -222.0703125 191.76953125 C-241.70919593 161.32660084 -247.20263733 120.02186241 -239.83544922 85.02587891 C-237.35411783 73.66142548 -234.12980865 62.9633299 -229.32421875 52.34765625 C-228.90148682 51.39777832 -228.90148682 51.39777832 -228.47021484 50.42871094 C-224.77166697 42.21470788 -220.43057009 34.66623076 -215.26171875 27.28515625 C-214.77944824 26.59502441 -214.29717773 25.90489258 -213.80029297 25.19384766 C-210.81926551 21.06542102 -207.59772271 17.44676991 -203.9152832 13.92944336 C-202.33520741 12.35858084 -200.95450414 10.71966348 -199.57421875 8.97265625 C-183.73244578 -9.81055997 -158.91817494 -22.1913355 -135.69921875 -28.96484375 C-134.87752197 -29.20726807 -134.0558252 -29.44969238 -133.20922852 -29.69946289 C-87.16782541 -42.49702913 -36.7133815 -29.52593699 0 0 Z " fill="#0F448F" transform="translate(247.32421875,49.65234375)"/>
<path d="M0 0 C1.07056641 -0.00128906 2.14113281 -0.00257813 3.24414062 -0.00390625 C4.93506836 0.00189453 4.93506836 0.00189453 6.66015625 0.0078125 C8.3452832 0.00201172 8.3452832 0.00201172 10.06445312 -0.00390625 C11.67223633 -0.00197266 11.67223633 -0.00197266 13.3125 0 C14.79544556 0.00169189 14.79544556 0.00169189 16.30834961 0.00341797 C18.72265625 0.1328125 18.72265625 0.1328125 20.72265625 1.1328125 C22.20853648 1.22821123 23.6985619 1.26354734 25.1875 1.265625 C26.51104492 1.26755859 26.51104492 1.26755859 27.86132812 1.26953125 C28.78494141 1.26566406 29.70855469 1.26179688 30.66015625 1.2578125 C31.57990234 1.26167969 32.49964844 1.26554687 33.44726562 1.26953125 C34.33091797 1.26824219 35.21457031 1.26695312 36.125 1.265625 C36.93445068 1.26449707 37.74390137 1.26336914 38.57788086 1.26220703 C40.90901063 1.21431857 40.90901063 1.21431857 43.72265625 0.1328125 C44.38265625 1.1228125 45.04265625 2.1128125 45.72265625 3.1328125 C45.39265625 3.7928125 45.06265625 4.4528125 44.72265625 5.1328125 C46.04265625 5.1328125 47.36265625 5.1328125 48.72265625 5.1328125 C49.71265625 6.6178125 49.71265625 6.6178125 50.72265625 8.1328125 C51.38265625 7.8028125 52.04265625 7.4728125 52.72265625 7.1328125 C53.71265625 7.6278125 53.71265625 7.6278125 54.72265625 8.1328125 C54.72265625 8.7928125 54.72265625 9.4528125 54.72265625 10.1328125 C55.30144531 10.25140625 55.88023438 10.37 56.4765625 10.4921875 C62.62806141 12.24670197 67.41839236 16.57535662 71.72265625 21.1328125 C72.38265625 21.4628125 73.04265625 21.7928125 73.72265625 22.1328125 C74.38265625 21.4728125 75.04265625 20.8128125 75.72265625 20.1328125 C76.21765625 21.6178125 76.21765625 21.6178125 76.72265625 23.1328125 C77.58890625 23.0709375 78.45515625 23.0090625 79.34765625 22.9453125 C84.58905318 23.23650122 88.22811721 25.28881956 91.72265625 29.1328125 C92.38265625 29.4628125 93.04265625 29.7928125 93.72265625 30.1328125 C93.72265625 29.4728125 93.72265625 28.8128125 93.72265625 28.1328125 C95.37265625 28.7928125 97.02265625 29.4528125 98.72265625 30.1328125 C98.72265625 30.7928125 98.72265625 31.4528125 98.72265625 32.1328125 C99.71845703 32.31457031 99.71845703 32.31457031 100.734375 32.5 C105.30143805 33.36674189 109.4157722 34.35938965 113.72265625 36.1328125 C115.04265625 36.1328125 116.36265625 36.1328125 117.72265625 36.1328125 C118.71265625 36.1328125 119.70265625 36.1328125 120.72265625 36.1328125 C120.72265625 36.7928125 120.72265625 37.4528125 120.72265625 38.1328125 C121.71265625 37.8028125 122.70265625 37.4728125 123.72265625 37.1328125 C125.66015625 37.4375 125.66015625 37.4375 127.72265625 38.0078125 C128.40328125 38.19085938 129.08390625 38.37390625 129.78515625 38.5625 C131.4419366 39.05018131 133.08421835 39.58666653 134.72265625 40.1328125 C134.72265625 39.4728125 134.72265625 38.8128125 134.72265625 38.1328125 C136.67578125 38.39322917 138.62890625 38.65364583 140.58203125 38.9140625 C145.66813508 39.43381034 150.72538925 38.96403837 155.65234375 37.59765625 C157.95880719 37.07978993 159.9878522 37.06967393 162.34765625 37.1328125 C165.66565256 37.25943492 165.66565256 37.25943492 168.72265625 36.1328125 C168.72265625 36.7928125 168.72265625 37.4528125 168.72265625 38.1328125 C170.70265625 37.1428125 170.70265625 37.1428125 172.72265625 36.1328125 C172.72265625 36.7928125 172.72265625 37.4528125 172.72265625 38.1328125 C173.44453125 37.4934375 174.16640625 36.8540625 174.91015625 36.1953125 C177.81006919 34.06870968 179.25115153 33.64083758 182.72265625 33.1328125 C186.82597217 31.93601202 190.09537704 30.36498432 193.72265625 28.1328125 C195.37470081 27.43069356 197.04189394 26.76309837 198.72265625 26.1328125 C203.15665135 24.43200031 207.30413424 22.34092137 211.515625 20.15625 C213.72265625 19.1328125 213.72265625 19.1328125 215.72265625 19.1328125 C216.71265625 20.1228125 216.71265625 20.1228125 217.72265625 21.1328125 C219.81693966 19.22840787 219.81693966 19.22840787 221.01171875 16.75390625 C223.0216312 13.6747938 225.02148139 12.18850525 228.09765625 10.1953125 C229.50144531 9.25365234 229.50144531 9.25365234 230.93359375 8.29296875 C233.72265625 7.1328125 233.72265625 7.1328125 236.57421875 7.94140625 C237.63769531 8.53115234 237.63769531 8.53115234 238.72265625 9.1328125 C239.40328125 8.3903125 240.08390625 7.6478125 240.78515625 6.8828125 C247.56030055 0.33905974 252.60306008 -0.30275769 261.94897461 -0.22753906 C264.28100952 -0.17291504 264.28100952 -0.17291504 266.66015625 -0.1171875 C274.11609375 0.0065625 274.11609375 0.0065625 281.72265625 0.1328125 C281.72265625 18.6128125 281.72265625 37.0928125 281.72265625 56.1328125 C184.04265625 56.1328125 86.36265625 56.1328125 -14.27734375 56.1328125 C-14.27734375 37.9828125 -14.27734375 19.8328125 -14.27734375 1.1328125 C-11.63734375 1.1328125 -8.99734375 1.1328125 -6.27734375 1.1328125 C-4.56649874 -0.57803251 -2.33374282 0.00266561 0 0 Z " fill="#FDFDFD" transform="translate(14.27734375,287.8671875)"/>
<path d="M0 0 C2.62757356 1.26150838 5.03959124 2.62436594 7.43359375 4.28515625 C8.07554687 4.72859375 8.7175 5.17203125 9.37890625 5.62890625 C10.05824219 6.10199219 10.73757812 6.57507813 11.4375 7.0625 C12.1490625 7.55492188 12.860625 8.04734375 13.59375 8.5546875 C15.73076924 10.03416236 17.86550851 11.51688154 20 13 C21.12610306 13.78023525 22.25238823 14.56020775 23.37890625 15.33984375 C25.47331382 16.78941495 27.56705571 18.2399484 29.66015625 19.69140625 C32.73050593 21.81731673 35.81107874 23.92805985 38.89453125 26.03491211 C40.2512385 26.9663513 41.60415616 27.90333568 42.953125 28.84594727 C46.28923921 31.17434445 49.63821327 33.4090691 53.12890625 35.5 C62.30355614 41.15324998 62.30355614 41.15324998 64.04296875 45.765625 C64.57018387 56.42391995 59.84431658 69.16265823 52.87109375 77.140625 C42.7617336 87.18666974 31.09633567 89.97522076 17.09765625 90.31640625 C16.3750914 90.33718735 15.65252655 90.35796844 14.9080658 90.37937927 C12.6262963 90.44415426 10.34442333 90.5034203 8.0625 90.5625 C6.50454709 90.60575397 4.9466042 90.64937031 3.38867188 90.69335938 C-0.40744922 90.79976039 -4.20367314 90.90122499 -8 91 C-7.93941406 91.69335449 -7.87882812 92.38670898 -7.81640625 93.10107422 C-7.22795229 99.94637804 -6.71038533 106.79369774 -6.24462891 113.6484375 C-6.03335194 116.54305851 -5.76555277 119.42454828 -5.48046875 122.3125 C-4.94395537 129.23107733 -5.07383534 134.79117648 -9.43139648 140.50390625 C-12.39436351 143.83116839 -15.27824343 146.48041666 -19.640625 147.796875 C-22.25783274 147.87917713 -24.44758709 147.56766326 -27 147 C-27.7734375 146.89558594 -28.546875 146.79117188 -29.34375 146.68359375 C-31.66300275 146.30631805 -33.76108009 145.71032738 -36 145 C-37.05272095 144.67446892 -37.05272095 144.67446892 -38.12670898 144.34236145 C-40.71145226 143.1847301 -42.16897122 142.1855503 -44 140 C-45.35392556 134.69971222 -45.35461599 129.38570803 -45.4375 123.94921875 C-45.49003541 122.33223122 -45.54592364 120.71534952 -45.60498047 119.09858704 C-45.75143282 114.82900206 -45.85038419 110.55955621 -45.94000244 106.28845215 C-46.03816211 102.03313555 -46.18370601 97.77948004 -46.32421875 93.52539062 C-46.58245801 85.45933394 -46.76712339 77.3934432 -46.91513062 69.32467651 C-46.98892046 65.35573136 -47.09883187 61.38824017 -47.21020508 57.42016602 C-47.2526947 55.25410509 -47.29346022 53.08800925 -47.33203125 50.921875 C-47.36445923 49.97136765 -47.39688721 49.02086029 -47.43029785 48.04154968 C-47.47353937 43.68321546 -47.35051818 41.56393835 -44.99633789 37.77636719 C-42.49842807 35.38120527 -39.97686859 33.7557938 -37 32 C-35.1650072 30.54883091 -33.35251693 29.06879667 -31.5625 27.5625 C-30.18771484 26.45068359 -30.18771484 26.45068359 -28.78515625 25.31640625 C-24.9980988 22.16672172 -21.39957042 18.82858567 -17.77734375 15.4921875 C-14.09797246 12.19058569 -10.27296412 9.09123204 -6.41015625 6.0078125 C-4.13541766 4.11281147 -2.05617601 2.12773666 0 0 Z " fill="#108FC1" transform="translate(167,116)"/>
<path d="M0 0 C9.95428458 8.16222524 19.06752688 16.91779761 26.67578125 27.34765625 C24.57588917 29.44754833 23.35264563 29.99105339 20.61254883 30.99584961 C19.35532768 31.46159645 19.35532768 31.46159645 18.07270813 31.93675232 C16.71027229 32.43212242 16.71027229 32.43212242 15.3203125 32.9375 C14.38531418 33.2826918 13.45031586 33.62788361 12.48698425 33.98353577 C9.48930633 35.08929076 6.48895494 36.18755973 3.48828125 37.28515625 C0.50594154 38.38043924 -2.47580351 39.47730354 -5.4568634 40.57606506 C-7.31252994 41.25956004 -9.16900934 41.94085342 -11.02641296 42.61961365 C-14.83531938 44.01866762 -18.60304684 45.44156465 -22.31347656 47.0859375 C-25.32421875 48.34765625 -25.32421875 48.34765625 -27.515625 48.2578125 C-29.84333688 47.08641538 -31.40040554 45.61074368 -33.26171875 43.78515625 C-40.88841949 36.77513593 -49.98818454 31.74108411 -59.32421875 27.34765625 C-59.32421875 26.68765625 -59.32421875 26.02765625 -59.32421875 25.34765625 C-60.12859375 25.07953125 -60.93296875 24.81140625 -61.76171875 24.53515625 C-62.60734375 24.14328125 -63.45296875 23.75140625 -64.32421875 23.34765625 C-64.65421875 22.35765625 -64.98421875 21.36765625 -65.32421875 20.34765625 C-67.15322007 19.46354023 -67.15322007 19.46354023 -69.38671875 18.91015625 C-72.49449697 17.97195905 -75.27830674 16.94745347 -78.13671875 15.41015625 C-83.2792619 12.70849565 -88.79667636 11.07961953 -94.32421875 9.34765625 C-94.32421875 8.68765625 -94.32421875 8.02765625 -94.32421875 7.34765625 C-95.49984375 7.38890625 -96.67546875 7.43015625 -97.88671875 7.47265625 C-100.76141591 7.57352282 -102.71410989 7.22628155 -105.5012207 6.35864258 C-112.1887864 4.59012546 -119.07191767 4.90898875 -125.94921875 4.91015625 C-127.12173187 4.90805649 -127.12173187 4.90805649 -128.31793213 4.90591431 C-141.22410064 4.92493142 -153.03080268 6.18029694 -165.32421875 10.34765625 C-166.50886719 10.73179688 -167.69351563 11.1159375 -168.9140625 11.51171875 C-172.12981571 12.65769626 -175.21284903 13.94351159 -178.32421875 15.34765625 C-178.94603027 15.62448242 -179.5678418 15.90130859 -180.20849609 16.18652344 C-198.43065047 24.40671012 -218.38227343 38.01666834 -227.32421875 56.34765625 C-228.80921875 56.84265625 -228.80921875 56.84265625 -230.32421875 57.34765625 C-228.77161669 46.5001432 -221.43308634 36.07282644 -215.26171875 27.28515625 C-214.77985107 26.59583008 -214.2979834 25.90650391 -213.80151367 25.19628906 C-210.82063831 21.06652942 -207.59841242 17.4474287 -203.9152832 13.92944336 C-202.33520741 12.35858084 -200.95450414 10.71966348 -199.57421875 8.97265625 C-183.73244578 -9.81055997 -158.91817494 -22.1913355 -135.69921875 -28.96484375 C-134.87752197 -29.20726807 -134.0558252 -29.44969238 -133.20922852 -29.69946289 C-87.16782541 -42.49702913 -36.7133815 -29.52593699 0 0 Z " fill="#103387" transform="translate(247.32421875,49.65234375)"/>
<path d="M0 0 C0 21.45 0 42.9 0 65 C-40.92 65 -81.84 65 -124 65 C-123.0051005 60.02550252 -122.69280037 59.02138212 -119 56 C-118.34 56 -117.68 56 -117 56 C-116.67 56.66 -116.34 57.32 -116 58 C-115.278125 57.67 -114.55625 57.34 -113.8125 57 C-110.98302573 55.99396471 -108.97104534 55.83022598 -106 56 C-106 56.66 -106 57.32 -106 58 C-99.37800428 57.248894 -95.56221887 55.34458555 -90.82421875 50.65625 C-87.87394202 47.97762616 -84.85742759 46.82659163 -81 46 C-81 46.99 -81 47.98 -81 49 C-81.763125 49.28875 -82.52625 49.5775 -83.3125 49.875 C-86.15029308 50.96269013 -86.15029308 50.96269013 -89 53 C-83.62491074 53.13056897 -81.21668779 51.66717633 -77.30078125 47.9921875 C-75.62237119 46.30185503 -73.96000348 44.59546984 -72.3125 42.875 C-71.47138672 42.03195313 -70.63027344 41.18890625 -69.76367188 40.3203125 C-65.36535178 35.82781743 -61.77952932 31.65094392 -59 26 C-59.66 25.67 -60.32 25.34 -61 25 C-61.33 26.32 -61.66 27.64 -62 29 C-62.99 29 -63.98 29 -65 29 C-63.23703704 23.45925926 -63.23703704 23.45925926 -62 21.0625 C-60.82512658 18.83327861 -60.82512658 18.83327861 -60.1875 15.5 C-58.79957766 11.40928152 -57.64114778 10.23434069 -54 8 C-48.60402042 5.77071209 -43.71296381 5.86106703 -38.00976562 6.078125 C-23.51830018 6.41158154 -16.35053518 0 0 0 Z " fill="#FCFCFC" transform="translate(296,160)"/>
<path d="M0 0 C4.22686409 1.4583461 7.5668415 3.67215754 11.125 6.3125 C16.81054176 10.45210785 22.56283809 14.47762356 28.375 18.4375 C29.18251709 18.98817139 29.99003418 19.53884277 30.82202148 20.10620117 C32.43895356 21.20858866 34.05605765 22.31072388 35.67333984 23.41259766 C39.18414173 25.80790027 42.68634555 28.21562669 46.1875 30.625 C46.8357373 31.07093506 47.48397461 31.51687012 48.15185547 31.97631836 C49.45073185 32.86988428 50.74956025 33.76351997 52.04833984 34.65722656 C54.0280383 36.0192908 56.00809168 37.38083737 57.98828125 38.7421875 C58.65005371 39.197146 59.31182617 39.65210449 59.99365234 40.12084961 C61.32853718 41.0384408 62.66349782 41.95592172 63.99853516 42.87329102 C67.34631372 45.17401931 70.69238925 47.47715147 74.03515625 49.78515625 C75.37749426 50.71109685 76.71994153 51.63687907 78.0625 52.5625 C79.03896484 53.23611572 79.03896484 53.23611572 80.03515625 53.92333984 C83.45051862 56.27224853 86.88170732 58.59336076 90.33984375 60.87890625 C91.03779053 61.34031006 91.7357373 61.80171387 92.45483398 62.27709961 C93.79462864 63.16011337 95.13651903 64.03995737 96.48071289 64.91625977 C98.00398803 65.91903954 99.50474475 66.95589935 101 68 C101 68.33 101 68.66 101 69 C97.58310244 69.27571508 94.16684025 69.52999032 90.74609375 69.75390625 C88.54859522 69.89826747 86.35196377 70.06328827 84.16015625 70.27734375 C77.02790031 70.73930661 73.53479666 68.22478562 68 64 C65.55827149 62.28818321 63.08964657 60.61608686 60.625 58.9375 C59.2312531 57.97861669 57.83803987 57.01895729 56.4453125 56.05859375 C51.80368083 52.86242785 47.15231709 49.68058399 42.5 46.5 C37.15792997 42.84649356 31.81609881 39.19265155 26.48144531 35.52832031 C25.13937923 34.60689224 23.79631065 33.68692228 22.45214844 32.76855469 C19.57342031 30.79688361 16.73189764 28.8017337 13.92578125 26.7265625 C13.04277344 26.07429688 12.15976563 25.42203125 11.25 24.75 C10.51265625 24.18796875 9.7753125 23.6259375 9.015625 23.046875 C7.08000091 21.82468092 7.08000091 21.82468092 4.98828125 22.109375 C2.50748541 23.22061557 0.9172793 24.63493688 -1.0625 26.5 C-4.39326795 29.56408881 -7.78180153 32.48079819 -11.3125 35.3125 C-15.88330362 39.01631716 -20.2129734 42.90679109 -24.51660156 46.91113281 C-28.62475373 50.71123995 -32.91637375 54.23849342 -37.27734375 57.74609375 C-41.01583717 60.84094411 -44.56059992 64.1277545 -48.1015625 67.4453125 C-49.05804688 68.28835937 -50.01453125 69.13140625 -51 70 C-51.59707764 70.60948486 -52.19415527 71.21896973 -52.80932617 71.84692383 C-58.61130242 77.21821831 -63.32149953 77.75237989 -71.09960938 77.61523438 C-72.40736328 77.55658203 -73.71511719 77.49792969 -75.0625 77.4375 C-76.41853854 77.40231402 -77.77466576 77.37038787 -79.13085938 77.34179688 C-82.42287236 77.25978943 -85.71026333 77.14505574 -89 77 C-81.41708841 69.33555172 -73.4011868 62.25534055 -65.01953125 55.48046875 C-57.07922088 48.95770409 -49.35188634 42.16300315 -41.75 35.25 C-37.63333173 31.51863566 -33.36942065 28.00963029 -29.05078125 24.515625 C-25.47943591 21.57075125 -21.9878363 18.54285164 -18.5 15.5 C-12.43097611 10.20697726 -6.27494277 5.04865458 0 0 Z " fill="#135DA3" transform="translate(163,87)"/>
<path d="M0 0 C-1.32 1.32 -2.64 2.64 -4 4 C-5.0828125 3.2575 -5.0828125 3.2575 -6.1875 2.5 C-9.24109714 0.87141486 -10.61035952 0.57629494 -14 1 C-16.73774618 1.92745649 -16.73774618 1.92745649 -19 3 C-19 2.34 -19 1.68 -19 1 C-19.87398437 1.09087891 -19.87398437 1.09087891 -20.765625 1.18359375 C-21.99539062 1.30927734 -21.99539062 1.30927734 -23.25 1.4375 C-24.15621094 1.53289062 -25.06242187 1.62828125 -25.99609375 1.7265625 C-28.0471081 1.91326082 -30.10293032 2.05180637 -32.16015625 2.1484375 C-39.85435144 2.54192862 -39.85435144 2.54192862 -46 7 C-46.99 7 -47.98 7 -49 7 C-49 14.92 -49 22.84 -49 31 C-49.66 31 -50.32 31 -51 31 C-51.33 23.41 -51.66 15.82 -52 8 C-53.32 8.33 -54.64 8.66 -56 9 C-56.99 9 -57.98 9 -59 9 C-61.33124004 11.15806221 -63.41386675 13.48645036 -65.55078125 15.8359375 C-68 18 -68 18 -70.84521484 18.8671875 C-76.48772678 20.89328682 -80.14501269 25.44855036 -84.3125 29.625 C-85.69018555 30.94177734 -85.69018555 30.94177734 -87.09570312 32.28515625 C-92.61907501 37.50762795 -92.61907501 37.50762795 -95.02734375 44.44921875 C-95.01380859 46.20685547 -95.01380859 46.20685547 -95 48 C-96.86154303 52.74693472 -99.43575708 55.43575708 -103 59 C-104.55849551 61.35346742 -104.55849551 61.35346742 -105 64 C-104.34641919 66.00431449 -103.67863055 68.0040278 -103 70 C-103.32287954 76.34996436 -103.32287954 76.34996436 -105.5625 78.5 C-107.38213831 80.08538513 -107.38213831 80.08538513 -107.3125 83.5625 C-107.36410488 87.06268472 -107.36410488 87.06268472 -105 89 C-101.79461597 89.37346668 -101.79461597 89.37346668 -98.0234375 89.4140625 C-97.33819 89.43342865 -96.6529425 89.4527948 -95.94692993 89.4727478 C-93.75641356 89.53256831 -91.5658447 89.57893756 -89.375 89.625 C-87.89060198 89.66317763 -86.40622616 89.70222924 -84.921875 89.7421875 C-81.28145315 89.83827084 -77.64086564 89.92229282 -74 90 C-72.86232383 112.72772576 -73.18752472 135.26911562 -74 158 C-74.33 158 -74.66 158 -75 158 C-75 145.46 -75 132.92 -75 120 C-82.92 120 -90.84 120 -99 120 C-99 121.98 -99 123.96 -99 126 C-99.66 126 -100.32 126 -101 126 C-112.12736703 102.81682189 -112.78763452 78.0967768 -104.8125 53.875 C-100.2610724 41.94618378 -93.99863486 32.1099254 -85 23 C-84.35289063 22.29230469 -83.70578125 21.58460937 -83.0390625 20.85546875 C-63.86339083 0.3883743 -26.62752221 -10.70197065 0 0 Z M-107 65 C-106.67 65.66 -106.34 66.32 -106 67 C-105.67 66.34 -105.34 65.68 -105 65 C-105.66 65 -106.32 65 -107 65 Z " fill="#F8F8F8" transform="translate(175,80)"/>
<path d="M0 0 C1.15951172 -0.02900391 2.31902344 -0.05800781 3.51367188 -0.08789062 C10.62701916 -0.14046226 15.28750588 0.44486538 21.3125 4.3125 C25.92423701 8.92423701 27.39008306 13.72062198 27.6875 20.125 C27.53815644 26.72598514 25.56366892 32.1176103 20.8125 36.75 C16.14829554 39.66512779 13.18071812 40.57912584 7.578125 40.7265625 C6.28261719 40.76523438 4.98710937 40.80390625 3.65234375 40.84375 C2.28906716 40.87520267 0.92578582 40.90645007 -0.4375 40.9375 C-1.81643028 40.97570469 -3.19533734 41.01475787 -4.57421875 41.0546875 C-7.94517718 41.14898004 -11.31612978 41.2345822 -14.6875 41.3125 C-15.69875055 32.56923005 -15.80707711 23.91926561 -15.75 15.125 C-15.74496963 13.77799648 -15.74040947 12.43099111 -15.73632812 11.08398438 C-15.72465354 7.82677463 -15.70827883 4.56966222 -15.6875 1.3125 C-10.61255641 -0.37914786 -5.31341619 0.0435764 0 0 Z " fill="#F5FCFD" transform="translate(171.6875,138.6875)"/>
<path d="M0 0 C0.75368362 -0.00191345 1.50736725 -0.0038269 2.28388977 -0.00579834 C3.86284727 -0.0071489 5.4418163 -0.00353214 7.02075195 0.00488281 C9.43010356 0.01564431 11.83871736 0.0049262 14.24804688 -0.0078125 C15.79036622 -0.00649158 17.3326851 -0.0039306 18.875 0 C19.58967941 -0.00404846 20.30435883 -0.00809692 21.04069519 -0.01226807 C25.04484968 0.02515589 28.13149417 0.49971539 31.73828125 2.265625 C31.73828125 2.595625 31.73828125 2.925625 31.73828125 3.265625 C31.08988281 3.24242187 30.44148437 3.21921875 29.7734375 3.1953125 C10.62456737 2.84303368 -7.8857948 4.87146629 -26.26171875 10.265625 C-27.50050781 10.61882812 -28.73929687 10.97203125 -30.015625 11.3359375 C-31.62244141 11.79613281 -31.62244141 11.79613281 -33.26171875 12.265625 C-34.11378906 12.50023438 -34.96585937 12.73484375 -35.84375 12.9765625 C-36.94783203 13.30527344 -36.94783203 13.30527344 -38.07421875 13.640625 C-38.82316406 13.85460937 -39.57210937 14.06859375 -40.34375 14.2890625 C-42.43284792 15.11207221 -42.43284792 15.11207221 -43.24609375 17.2578125 C-44.26171875 19.265625 -44.26171875 19.265625 -46.2578125 20.25 C-47.06347656 20.50265625 -47.86914062 20.7553125 -48.69921875 21.015625 C-73.0587566 30.06744753 -90.73250969 56.84043456 -101.26171875 79.265625 C-102.25868151 76.15518845 -102.23626025 74.23945177 -101.3359375 71.11328125 C-101.11615234 70.33662109 -100.89636719 69.55996094 -100.66992188 68.75976562 C-100.31317383 67.55610352 -100.31317383 67.55610352 -99.94921875 66.328125 C-99.72298828 65.52955078 -99.49675781 64.73097656 -99.26367188 63.90820312 C-98.12117446 59.93415592 -96.89884023 56.07020308 -95.26171875 52.265625 C-93.94171875 52.265625 -92.62171875 52.265625 -91.26171875 52.265625 C-91.24109375 51.585 -91.22046875 50.904375 -91.19921875 50.203125 C-89.99842187 46.4406281 -88.03381482 44.79257634 -85.19140625 42.1328125 C-83.37134284 40.37169851 -81.84266207 38.55225629 -80.26171875 36.578125 C-63.70081868 17.49789338 -40.28527907 7.76529542 -16.26171875 2.265625 C-15.03469238 1.92337891 -13.80766602 1.58113281 -12.54345703 1.22851562 C-8.31800394 0.17229677 -4.33983053 -0.02479463 0 0 Z " fill="#0EA6CB" transform="translate(111.26171875,53.734375)"/>
<path d="M0 0 C-1.32 1.32 -2.64 2.64 -4 4 C-5.0828125 3.2575 -5.0828125 3.2575 -6.1875 2.5 C-9.24109714 0.87141486 -10.61035952 0.57629494 -14 1 C-16.73774618 1.92745649 -16.73774618 1.92745649 -19 3 C-19 2.34 -19 1.68 -19 1 C-19.87398437 1.09087891 -19.87398437 1.09087891 -20.765625 1.18359375 C-21.99539062 1.30927734 -21.99539062 1.30927734 -23.25 1.4375 C-24.15621094 1.53289062 -25.06242187 1.62828125 -25.99609375 1.7265625 C-28.0471081 1.91326082 -30.10293032 2.05180637 -32.16015625 2.1484375 C-39.85435144 2.54192862 -39.85435144 2.54192862 -46 7 C-46.99 7 -47.98 7 -49 7 C-49 14.92 -49 22.84 -49 31 C-49.66 31 -50.32 31 -51 31 C-51.33 23.41 -51.66 15.82 -52 8 C-53.32 8.33 -54.64 8.66 -56 9 C-56.99 9 -57.98 9 -59 9 C-61.33124004 11.15806221 -63.41386675 13.48645036 -65.55078125 15.8359375 C-68 18 -68 18 -70.84521484 18.8671875 C-76.48772678 20.89328682 -80.14501269 25.44855036 -84.3125 29.625 C-85.69018555 30.94177734 -85.69018555 30.94177734 -87.09570312 32.28515625 C-92.61907501 37.50762795 -92.61907501 37.50762795 -95.02734375 44.44921875 C-95.01380859 46.20685547 -95.01380859 46.20685547 -95 48 C-96.86154303 52.74693472 -99.43575708 55.43575708 -103 59 C-104.55849551 61.35346742 -104.55849551 61.35346742 -105 64 C-104.34641919 66.00431449 -103.67863055 68.0040278 -103 70 C-103.32293987 76.35115071 -103.32293987 76.35115071 -105.5 78.4375 C-107.38265587 80.39859987 -107.30301957 81.45942828 -107.5625 84.125 C-107.706875 85.40375 -107.85125 86.6825 -108 88 C-108.99 88.495 -108.99 88.495 -110 89 C-111.1206099 67.0858509 -104.17643746 44.17394845 -89.5 27.625 C-88.01111509 26.07259611 -86.51159995 24.53029465 -85 23 C-84.35289063 22.29230469 -83.70578125 21.58460937 -83.0390625 20.85546875 C-63.86339083 0.3883743 -26.62752221 -10.70197065 0 0 Z M-107 65 C-106.67 65.66 -106.34 66.32 -106 67 C-105.67 66.34 -105.34 65.68 -105 65 C-105.66 65 -106.32 65 -107 65 Z " fill="#DFE0E0" transform="translate(175,80)"/>
<path d="M0 0 C-5.28540945 4.59661939 -8.94156662 6.74791309 -16 7 C-16 6.34 -16 5.68 -16 5 C-19.63 5.99 -23.26 6.98 -27 8 C-27 7.01 -27 6.02 -27 5 C-27.969375 5.7425 -28.93875 6.485 -29.9375 7.25 C-30.75541016 7.87648437 -30.75541016 7.87648437 -31.58984375 8.515625 C-33.39053593 10.16716076 -33.39053593 10.16716076 -34 14 C6.92 14 47.84 14 90 14 C90 14.66 90 15.32 90 16 C49.08 16 8.16 16 -34 16 C-34 25.57 -34 35.14 -34 45 C-36.31 45 -38.62 45 -41 45 C-40.67 44.34 -40.34 43.68 -40 43 C-39.91288225 39.93757679 -39.8845154 36.89813535 -39.90234375 33.8359375 C-39.9037587 32.92872955 -39.90517365 32.02152161 -39.90663147 31.08682251 C-39.91223904 28.18284845 -39.92479282 25.27895085 -39.9375 22.375 C-39.94251402 20.40885528 -39.9470771 18.44270935 -39.95117188 16.4765625 C-39.96221094 11.6510121 -39.97948065 6.82551903 -40 2 C-39.08710205 1.94465088 -38.1742041 1.88930176 -37.23364258 1.83227539 C-33.83225818 1.624407 -30.43109371 1.41345528 -27.0300293 1.20043945 C-25.56070418 1.10904138 -24.09130303 1.01885685 -22.62182617 0.92993164 C-20.50418058 0.80156775 -18.38685084 0.66877738 -16.26953125 0.53515625 C-14.99698486 0.456604 -13.72443848 0.37805176 -12.41333008 0.29711914 C-1.86360027 -0.62120009 -1.86360027 -0.62120009 0 0 Z " fill="#E0E1E3" transform="translate(206,211)"/>
<path d="M0 0 C3.72960366 -0.08101311 7.45744359 -0.14051069 11.1875 -0.1875 C12.24259766 -0.21263672 13.29769531 -0.23777344 14.38476562 -0.26367188 C15.91713867 -0.27817383 15.91713867 -0.27817383 17.48046875 -0.29296875 C18.41785889 -0.3086792 19.35524902 -0.32438965 20.32104492 -0.34057617 C23.5401539 0.06866989 25.38972635 1.10247378 28 3 C30.27920832 7.015748 30 9.07901526 30 14 C23.4 14 16.8 14 10 14 C10 18.29 10 22.58 10 27 C9.67 27 9.34 27 9 27 C9 22.71 9 18.42 9 14 C6.36 14 3.72 14 1 14 C0.67 9.38 0.34 4.76 0 0 Z " fill="#F9FAFA" transform="translate(162,146)"/>
<path d="M0 0 C0.33 0 0.66 0 1 0 C1 6.6 1 13.2 1 20 C12.22 20 23.44 20 35 20 C35 13.4 35 6.8 35 0 C35.66 0 36.32 0 37 0 C37 6.6 37 13.2 37 20 C43.27 20 49.54 20 56 20 C56 13.4 56 6.8 56 0 C56.66 0 57.32 0 58 0 C58 7.26 58 14.52 58 22 C51.07 21.67 44.14 21.34 37 21 C37 25.29 37 29.58 37 34 C36.34 34 35.68 34 35 34 C35 30.04 35 26.08 35 22 C23.78 22 12.56 22 1 22 C1.08378906 24.49433594 1.16757812 26.98867188 1.25390625 29.55859375 C1.33153192 32.00117604 1.40695737 34.4438172 1.48217773 36.88647461 C1.53522089 38.57111876 1.59051541 40.25569371 1.64819336 41.94018555 C1.73116887 44.37533647 1.80577635 46.81062955 1.87890625 49.24609375 C1.90594131 49.98709824 1.93297638 50.72810272 1.96083069 51.49156189 C2.10771095 56.75440923 1.67067048 61.77689956 1 67 C0.67 67 0.34 67 0 67 C-1.13827235 57.18640688 -0.9380483 47.59129144 -0.5625 37.75 C-0.50912237 36.21486598 -0.45638387 34.6797096 -0.40429688 33.14453125 C-0.27805089 29.42929227 -0.13877408 25.71487526 0 22 C-10.23 22 -20.46 22 -31 22 C-31 21.34 -31 20.68 -31 20 C-20.77 20 -10.54 20 0 20 C0 13.4 0 6.8 0 0 Z " fill="#DCDEE6" transform="translate(31,0)"/>
<path d="M0 0 C-3.76470011 3.06753342 -7.47763777 4.50290213 -12.0625 6 C-14.90629689 6.8877699 -14.90629689 6.8877699 -17.0625 8.0625 C-21.57364861 10.24531385 -26.05895698 10.02289566 -30.98046875 9.96484375 C-32.03878906 9.95582031 -33.09710938 9.94679688 -34.1875 9.9375 C-35.78658203 9.92009766 -35.78658203 9.92009766 -37.41796875 9.90234375 C-39.93102099 9.70439537 -39.93102099 9.70439537 -41 11 C-48.03465989 12.19456489 -53.21534252 11.809242 -60 10 C-60 10.66 -60 11.32 -60 12 C-69.41002278 11.03644647 -69.41002278 11.03644647 -74 10 C-74 9.34 -74 8.68 -74 8 C-74.99 8.33 -75.98 8.66 -77 9 C-77.99 8.34 -78.98 7.68 -80 7 C-80.33 7.66 -80.66 8.32 -81 9 C-81.60328125 8.79503906 -82.2065625 8.59007812 -82.828125 8.37890625 C-83.62734375 8.10949219 -84.4265625 7.84007812 -85.25 7.5625 C-86.03890625 7.29566406 -86.8278125 7.02882813 -87.640625 6.75390625 C-89.95380355 5.97815372 -89.95380355 5.97815372 -92.1875 5.5 C-94.4691197 4.87058767 -95.46856246 3.76115317 -97 2 C-93.49614478 0.83204826 -92.5115844 1.24384096 -89.0625 2.3125 C-77.20554927 5.97867632 -65.41743855 6.401606 -53.125 6.375 C-52.31106781 6.37545319 -51.49713562 6.37590637 -50.65853882 6.37637329 C-34.49580533 6.34998402 -19.45507002 4.55243497 -4.05541992 -0.51831055 C-2 -1 -2 -1 0 0 Z " fill="#DFE0E0" transform="translate(209,316)"/>
<path d="M0 0 C0.66 0 1.32 0 2 0 C1.67 0.928125 1.34 1.85625 1 2.8125 C-0.14967004 5.92029291 -0.14967004 5.92029291 0 9 C-1.171875 10.6484375 -1.171875 10.6484375 -2.75 12.375 C-5.2942238 15.18906571 -7.614152 18.01769 -10 21 C3.365 21.495 3.365 21.495 17 22 C17 22.33 17 22.66 17 23 C16.10804932 22.99887207 15.21609863 22.99774414 14.29711914 22.99658203 C10.94701448 23.00658299 7.59932682 23.04339388 4.24975586 23.09765625 C2.80779181 23.11568281 1.36565695 23.12340922 -0.07641602 23.12011719 C-9.21294563 23.10744956 -15.85332393 23.72928028 -23 30 C-24.32754896 31.00766638 -25.65934057 32.00984341 -27 33 C-27.99 32.01 -28.98 31.02 -30 30 C-26.37147115 26.31781453 -22.63203654 22.79493459 -18.8125 19.3125 C-8.60617446 10.35530919 -8.60617446 10.35530919 0 0 Z " fill="#DADBDC" transform="translate(279,265)"/>
<path d="M0 0 C1.07354736 0.01571045 2.14709473 0.0314209 3.25317383 0.04760742 C4.41655273 0.05727539 5.57993164 0.06694336 6.77856445 0.0769043 C7.99350586 0.10204102 9.20844727 0.12717773 10.46020508 0.15307617 C11.68674805 0.16661133 12.91329102 0.18014648 14.17700195 0.1940918 C17.20934172 0.22948876 20.24080504 0.27886857 23.27270508 0.34057617 C23.27270508 0.67057617 23.27270508 1.00057617 23.27270508 1.34057617 C22.6982666 1.34468506 22.12382812 1.34879395 21.53198242 1.35302734 C18.90287861 1.38613615 16.27603979 1.4567931 13.64770508 1.52807617 C12.74407227 1.53387695 11.84043945 1.53967773 10.90942383 1.5456543 C4.41933901 1.75883227 1.99313918 2.99209605 -2.72729492 7.34057617 C-7.93957946 8.82575901 -13.34684567 8.36079564 -18.7175293 8.12573242 C-25.87315029 7.9747989 -30.77019157 10.54969222 -36.72729492 14.34057617 C-36.39729492 11.04057617 -36.06729492 7.74057617 -35.72729492 4.34057617 C-34.83421631 4.32599365 -33.9411377 4.31141113 -33.02099609 4.29638672 C-29.70512215 4.2353054 -26.39007593 4.16115139 -23.07470703 4.078125 C-21.64024864 4.04488617 -20.2056598 4.01685082 -18.77099609 3.99414062 C-16.70768685 3.96057346 -14.6455719 3.90826204 -12.58276367 3.85229492 C-10.72107544 3.8130188 -10.72107544 3.8130188 -8.82177734 3.77294922 C-4.75187733 3.20428705 -3.95709528 0.49414984 0 0 Z " fill="#E0E0E1" transform="translate(272.727294921875,158.659423828125)"/>
<path d="M0 0 C7.59 0 15.18 0 23 0 C23.33 0.66 23.66 1.32 24 2 C19.38 2 14.76 2 10 2 C10 5.63 10 9.26 10 13 C16.6 13 23.2 13 30 13 C30 13.33 30 13.66 30 14 C23.4 14 16.8 14 10 14 C10 18.29 10 22.58 10 27 C9.67 27 9.34 27 9 27 C9 22.71 9 18.42 9 14 C6.36 14 3.72 14 1 14 C0.67 9.38 0.34 4.76 0 0 Z " fill="#CFD2D4" transform="translate(162,146)"/>
<path d="M0 0 C2.35621423 0.02397491 4.7113185 0.02048497 7.06762695 0.01391602 C8.58260761 0.01948319 10.09758358 0.02658697 11.61254883 0.03540039 C12.30840591 0.03448898 13.004263 0.03357758 13.72120667 0.03263855 C17.66559025 0.09002584 20.70870505 0.61026476 24.26489258 2.33618164 C24.26489258 2.66618164 24.26489258 2.99618164 24.26489258 3.33618164 C23.61649414 3.31297852 22.9680957 3.28977539 22.30004883 3.26586914 C6.29045526 2.97134311 -10.22093059 3.80829471 -25.69702148 8.1027832 C-30.47515678 9.42283186 -30.47515678 9.42283186 -33.73510742 8.33618164 C-33.07510742 8.33618164 -32.41510742 8.33618164 -31.73510742 8.33618164 C-31.52877686 7.54816162 -31.32244629 6.7601416 -31.10986328 5.94824219 C-29.73510742 3.33618164 -29.73510742 3.33618164 -27.11230469 2.20263672 C-17.99782684 0.42090373 -9.26809103 -0.1010066 0 0 Z " fill="#1088BC" transform="translate(118.735107421875,53.663818359375)"/>
<path d="M0 0 C-5.28540945 4.59661939 -8.94156662 6.74791309 -16 7 C-16 6.34 -16 5.68 -16 5 C-21.445 6.485 -21.445 6.485 -27 8 C-27 7.01 -27 6.02 -27 5 C-29.31 6.65 -31.62 8.3 -34 10 C-34 7.36 -34 4.72 -34 2 C-33.26885986 1.94465088 -32.53771973 1.88930176 -31.78442383 1.83227539 C-28.46020002 1.57883794 -25.13635583 1.3207169 -21.8125 1.0625 C-20.66201172 0.97548828 -19.51152344 0.88847656 -18.32617188 0.79882812 C-17.21435547 0.71181641 -16.10253906 0.62480469 -14.95703125 0.53515625 C-13.93585205 0.456604 -12.91467285 0.37805176 -11.86254883 0.29711914 C-9.00817016 0.04867168 -9.00817016 0.04867168 -6.2722168 -0.56079102 C-3.81567686 -1.03562881 -2.35006027 -0.78335342 0 0 Z " fill="#DFE1E1" transform="translate(206,211)"/>
<path d="M0 0 C1.13767617 22.72772576 0.81247528 45.26911562 0 68 C-0.33 68 -0.66 68 -1 68 C-2.40027356 24.99159787 -2.40027356 24.99159787 -1 5 C-1.66 5 -2.32 5 -3 5 C-3 4.34 -3 3.68 -3 3 C-6.0745356 3.7763932 -6.0745356 3.7763932 -8 6 C-13.26839066 6.64248667 -18.22692934 5.19058822 -23 3 C-23.33 2.34 -23.66 1.68 -24 1 C-21.125109 0.8312433 -18.25011104 0.66492885 -15.375 0.5 C-14.56675781 0.45230469 -13.75851563 0.40460938 -12.92578125 0.35546875 C-11.73662109 0.28779297 -11.73662109 0.28779297 -10.5234375 0.21875 C-9.4394165 0.1559082 -9.4394165 0.1559082 -8.33349609 0.09179688 C-5.55408563 -0.01754172 -2.78126256 -0.01399377 0 0 Z " fill="#E0E1E1" transform="translate(101,170)"/>
<path d="M0 0 C0.33 0 0.66 0 1 0 C1 6.6 1 13.2 1 20 C2.65 20 4.3 20 6 20 C4.02 20.99 4.02 20.99 2 22 C2.00523682 23.04341553 2.01047363 24.08683105 2.01586914 25.16186523 C2.03410607 29.07005947 2.04549969 32.97825003 2.05493164 36.88647461 C2.05992943 38.57105138 2.06672989 40.25562388 2.07543945 41.94018555 C2.08770622 44.37549906 2.09327398 46.81075474 2.09765625 49.24609375 C2.10281754 49.98709824 2.10797882 50.72810272 2.11329651 51.49156189 C2.11384595 56.72962823 1.64951866 61.80160321 1 67 C0.67 67 0.34 67 0 67 C-1.13827235 57.18640688 -0.9380483 47.59129144 -0.5625 37.75 C-0.50912237 36.21486598 -0.45638387 34.6797096 -0.40429688 33.14453125 C-0.27805089 29.42929227 -0.13877408 25.71487526 0 22 C-10.23 22 -20.46 22 -31 22 C-31 21.34 -31 20.68 -31 20 C-20.77 20 -10.54 20 0 20 C0 13.4 0 6.8 0 0 Z " fill="#D0D3DB" transform="translate(31,0)"/>
<path d="M0 0 C0.66 0.33 1.32 0.66 2 1 C0.45892309 6.47938457 -3.19249402 9.96192492 -7 14 C-7.51739746 14.56589844 -8.03479492 15.13179687 -8.56787109 15.71484375 C-10.33757219 17.64233025 -12.13429963 19.54135363 -13.9375 21.4375 C-14.79649902 22.37903931 -14.79649902 22.37903931 -15.67285156 23.33959961 C-19.97310726 27.76915435 -22.81856186 28.84393735 -29 29 C-24.47486034 24.22346369 -24.47486034 24.22346369 -21.875 23 C-19.79539061 22.10162105 -19.79539061 22.10162105 -18.6875 19.75 C-17.09274606 17.15114172 -15.88168099 15.94251693 -13.5625 14.0625 C-11.01826505 11.99830938 -9.72378659 10.57755596 -7.875 7.75 C-5.75446626 4.63988385 -4.44680798 4.21104064 -1 3 C-0.67 2.01 -0.34 1.02 0 0 Z " fill="#DDDFDF" transform="translate(235,185)"/>
<path d="M0 0 C-0.5639879 4.4870214 -2.30741843 7.41802732 -4.75 11.1875 C-8.21600955 16.62573756 -11.25919252 22.16260715 -14 28 C-14.99696276 24.88956345 -14.9745415 22.97382677 -14.07421875 19.84765625 C-13.85443359 19.07099609 -13.63464844 18.29433594 -13.40820312 17.49414062 C-13.17037109 16.69169922 -12.93253906 15.88925781 -12.6875 15.0625 C-12.46126953 14.26392578 -12.23503906 13.46535156 -12.00195312 12.64257812 C-8.78158497 1.44089409 -8.78158497 1.44089409 -5.5625 -0.375 C-3 -1 -3 -1 0 0 Z " fill="#139FC3" transform="translate(24,105)"/>
<path d="M0 0 C7.38352924 1.26877939 14.65332491 2.81858355 21.9375 4.5625 C28.89681748 6.20405879 35.57363548 7.55747234 42.7578125 7.6640625 C45.52843227 8.07917278 46.9129138 9.18221525 49 11 C44.56486311 11 41.26616316 10.13764351 37 9 C37 9.66 37 10.32 37 11 C27.58997722 10.03644647 27.58997722 10.03644647 23 9 C23 8.34 23 7.68 23 7 C22.01 7.33 21.02 7.66 20 8 C19.01 7.34 18.02 6.68 17 6 C16.67 6.66 16.34 7.32 16 8 C15.39671875 7.79503906 14.7934375 7.59007812 14.171875 7.37890625 C13.37265625 7.10949219 12.5734375 6.84007812 11.75 6.5625 C10.96109375 6.29566406 10.1721875 6.02882813 9.359375 5.75390625 C7.04590113 4.97879196 7.04590113 4.97879196 4.8125 4.49609375 C2.5121057 3.86645996 1.50877725 2.8105327 0 1 C0 0.67 0 0.34 0 0 Z " fill="#E4E6E6" transform="translate(112,317)"/>
<path d="M0 0 C0.33 0 0.66 0 1 0 C1 21.45 1 42.9 1 65 C9.91 64.67 18.82 64.34 28 64 C34.70010577 64.2508061 41.32554832 64.5053143 48 65 C48 65.33 48 65.66 48 66 C47.16021606 66.03758423 47.16021606 66.03758423 46.3034668 66.07592773 C43.76458695 66.19203745 41.22606447 66.3146958 38.6875 66.4375 C37.80642578 66.47681641 36.92535156 66.51613281 36.01757812 66.55664062 C35.17001953 66.59853516 34.32246094 66.64042969 33.44921875 66.68359375 C32.66893311 66.72025146 31.88864746 66.75690918 31.0847168 66.79467773 C28.80670899 66.94125263 28.80670899 66.94125263 26 68 C25.505 67.505 25.505 67.505 25 67 C23.22130274 66.84235595 21.43681524 66.74899323 19.65234375 66.68359375 C18.57275391 66.64169922 17.49316406 66.59980469 16.38085938 66.55664062 C15.24455078 66.51732422 14.10824219 66.47800781 12.9375 66.4375 C11.79732422 66.39431641 10.65714844 66.35113281 9.48242188 66.30664062 C6.65507805 66.20017161 3.82764262 66.09815793 1 66 C1 68.64 1 71.28 1 74 C0.67 74 0.34 74 0 74 C0 49.58 0 25.16 0 0 Z " fill="#C8C9CB" transform="translate(8,222)"/>
<path d="M0 0 C-5.44754039 4.60266723 -10.16909914 7.88006525 -17 10 C-17.99 10.33 -18.98 10.66 -20 11 C-20.99 11 -21.98 11 -23 11 C-23.61875 11.495 -24.2375 11.99 -24.875 12.5 C-27.4498621 14.31754972 -28.91685988 14.25692834 -32 14 C-32.33 13.01 -32.66 12.02 -33 11 C-25.70121105 7.8386483 -18.31954488 4.92312447 -10.875 2.125 C-10.03348389 1.80265381 -9.19196777 1.48030762 -8.32495117 1.14819336 C-7.13929565 0.70745483 -7.13929565 0.70745483 -5.9296875 0.2578125 C-5.22054199 -0.0088623 -4.51139648 -0.27553711 -3.78076172 -0.55029297 C-2 -1 -2 -1 0 0 Z " fill="#DFDFDF" transform="translate(253,94)"/>
<path d="M0 0 C0.99 0 1.98 0 3 0 C3.33 9.57 3.66 19.14 4 29 C1.69 29 -0.62 29 -3 29 C-2.67 28.34 -2.34 27.68 -2 27 C-1.85871483 25.22319327 -1.77405137 23.44171327 -1.71875 21.66015625 C-1.68136719 20.59732422 -1.64398438 19.53449219 -1.60546875 18.43945312 C-1.57066406 17.32505859 -1.53585938 16.21066406 -1.5 15.0625 C-1.43115248 12.86575411 -1.35841247 10.66912579 -1.28125 8.47265625 C-1.25095703 7.49562744 -1.22066406 6.51859863 -1.18945312 5.51196289 C-1 3 -1 3 0 0 Z " fill="#DFE0E2" transform="translate(168,227)"/>
<path d="M0 0 C0.66 0 1.32 0 2 0 C2 0.99 2 1.98 2 3 C8.93 3.495 8.93 3.495 16 4 C16 4.66 16 5.32 16 6 C15.00419922 6.07347656 15.00419922 6.07347656 13.98828125 6.1484375 C7.07845474 6.7335031 2.57286628 7.77230834 -3 12 C-3.66 12 -4.32 12 -5 12 C-5 11.34 -5 10.68 -5 10 C-5.495 10.474375 -5.99 10.94875 -6.5 11.4375 C-9.99468651 13.62167907 -12.90966936 13.65913911 -17 14 C-16.67 13.01 -16.34 12.02 -16 11 C-13.12890625 9.61328125 -13.12890625 9.61328125 -9.5625 8.3125 C-8.38816406 7.87550781 -7.21382813 7.43851562 -6.00390625 6.98828125 C-3 6 -3 6 -1 6 C-0.67 4.02 -0.34 2.04 0 0 Z " fill="#DDDDDD" transform="translate(280,77)"/>
<path d="M0 0 C2.64 0 5.28 0 8 0 C8 4.29 8 8.58 8 13 C5.36 13 2.72 13 0 13 C0 8.71 0 4.42 0 0 Z " fill="#EDEFF1" transform="translate(163,160)"/>
<path d="M0 0 C2.86867231 1.38264837 5.56024032 2.92148553 8.25 4.625 C8.95640625 5.07101563 9.6628125 5.51703125 10.390625 5.9765625 C10.92171875 6.31429687 11.4528125 6.65203125 12 7 C9 8 9 8 6.95703125 7.00390625 C6.24933594 6.52824219 5.54164063 6.05257812 4.8125 5.5625 C3.73935547 4.85287109 3.73935547 4.85287109 2.64453125 4.12890625 C2.10183594 3.75636719 1.55914062 3.38382812 1 3 C-0.423125 4.2375 -0.423125 4.2375 -1.875 5.5 C-4.75 8 -4.75 8 -7 8 C-7.309375 8.8353125 -7.309375 8.8353125 -7.625 9.6875 C-9.5175586 12.87043946 -12.11544791 14.71639626 -15 17 C-15.66 17.66 -16.32 18.32 -17 19 C-21.07407318 22.86406941 -24.40415807 25.63516051 -30 27 C-22.67243454 19.42818236 -14.66515396 12.62123837 -6.4453125 6.04296875 C-4.16064697 4.13421464 -2.06749022 2.13961197 0 0 Z " fill="#2CB5CB" transform="translate(167,116)"/>
<path d="M0 0 C0.7425 0.763125 1.485 1.52625 2.25 2.3125 C3.1575 3.199375 4.065 4.08625 5 5 C5.5259375 5.53625 6.051875 6.0725 6.59375 6.625 C10.31088023 8.74907442 14.03647256 8.57228636 18.25 8.6875 C19.51070312 8.73874023 19.51070312 8.73874023 20.796875 8.79101562 C22.86412204 8.87323568 24.93203874 8.93830157 27 9 C27 8.01 27 7.02 27 6 C25.68 5.34 24.36 4.68 23 4 C26.38878512 4 27.39757217 4.64361198 30.1875 6.4375 C31.26064453 7.11619141 31.26064453 7.11619141 32.35546875 7.80859375 C32.89816406 8.20175781 33.44085938 8.59492188 34 9 C34 9.33 34 9.66 34 10 C30.58310244 10.27571508 27.16684025 10.52999032 23.74609375 10.75390625 C21.54859522 10.89826747 19.35196377 11.06328827 17.16015625 11.27734375 C10.24559822 11.72520612 6.24358349 9.3785524 1 5 C-1.5625 2.625 -1.5625 2.625 -3 1 C-2.01 0.67 -1.02 0.34 0 0 Z " fill="#27B6CA" transform="translate(230,146)"/>
<path d="M0 0 C0.66 0.33 1.32 0.66 2 1 C-1.13507692 3.66481538 -4.2739997 6.20668807 -7.625 8.59375 C-12.71191713 12.39252844 -17.06645967 16.84758993 -21.5 21.375 C-22.32242188 22.20644531 -23.14484375 23.03789063 -23.9921875 23.89453125 C-25.99947551 25.92515982 -28.00190534 27.96033167 -30 30 C-30 25.59486952 -27.24993115 23.54790248 -24.375 20.5 C-23.79830566 19.88286133 -23.22161133 19.26572266 -22.62744141 18.62988281 C-15.82499147 11.52546778 -8.17872429 5.45248286 0 0 Z " fill="#0864A4" transform="translate(58,75)"/>
<path d="M0 0 C0.33 0 0.66 0 1 0 C2.13767617 22.72772576 1.81247528 45.26911562 1 68 C0.67 68 0.34 68 0 68 C-0.75797424 45.27796054 -1.26357376 22.7156753 0 0 Z " fill="#C9CACD" transform="translate(100,170)"/>
<path d="M0 0 C0 2.64 0 5.28 0 8 C-2.64738916 9.4606285 -3.89448334 10 -7 10 C-7.66 10.66 -8.32 11.32 -9 12 C-9.99 12 -10.98 12 -12 12 C-12 10.02 -12 8.04 -12 6 C-10.6696875 5.62875 -10.6696875 5.62875 -9.3125 5.25 C-6.56433719 4.21295743 -2.57637424 0 0 0 Z " fill="#E1E2E4" transform="translate(113,164)"/>
<path d="M0 0 C8.91 0 17.82 0 27 0 C27 0.66 27 1.32 27 2 C19.41 2 11.82 2 4 2 C4 3.98 4 5.96 4 8 C3.34 8 2.68 8 2 8 C0.74335022 5.09399739 0 3.20395416 0 0 Z " fill="#E2E4E8" transform="translate(72,198)"/>
<path d="M0 0 C1.88041992 0.07250977 1.88041992 0.07250977 3.79882812 0.14648438 C5.10916016 0.20255859 6.41949219 0.25863281 7.76953125 0.31640625 C9.10479755 0.3696486 10.44008397 0.42238885 11.77539062 0.47460938 C15.04450269 0.60442971 18.31332044 0.73940161 21.58203125 0.87890625 C21.58203125 1.20890625 21.58203125 1.53890625 21.58203125 1.87890625 C12.01203125 2.20890625 2.44203125 2.53890625 -7.41796875 2.87890625 C-7.41796875 12.44890625 -7.41796875 22.01890625 -7.41796875 31.87890625 C-7.74796875 31.87890625 -8.07796875 31.87890625 -8.41796875 31.87890625 C-8.74796875 21.64890625 -9.07796875 11.41890625 -9.41796875 0.87890625 C-6.0020072 -0.2597476 -3.59334666 -0.14633538 0 0 Z " fill="#38AEC6" transform="translate(163.41796875,137.12109375)"/>
<path d="M0 0 C2 2 2 2 2.1953125 4.3828125 C2.17210937 5.28773438 2.14890625 6.19265625 2.125 7.125 C2.10695312 8.03507813 2.08890625 8.94515625 2.0703125 9.8828125 C2.04710937 10.58148438 2.02390625 11.28015625 2 12 C0.02 12 -1.96 12 -4 12 C-5.15171123 7.96901069 -5.00356005 5.70658609 -3 2 C-2.01 1.34 -1.02 0.68 0 0 Z " fill="#E3E5E7" transform="translate(169,147)"/>
<path d="M0 0 C0.66 0.33 1.32 0.66 2 1 C-1.35391725 5.20680342 -4.2433757 8.35743095 -9 11 C-9.99 12.485 -9.99 12.485 -11 14 C-12.65532623 15.01866229 -14.32260138 16.01810813 -16 17 C-16.474375 17.474375 -16.94875 17.94875 -17.4375 18.4375 C-19.69354878 20.69354878 -22.32666459 22.27718385 -25 24 C-25 23.01 -25 22.02 -25 21 C-23.0859375 19.16015625 -23.0859375 19.16015625 -20.375 17.0625 C-19.38628906 16.28132813 -18.39757812 15.50015625 -17.37890625 14.6953125 C-16.8389502 14.26895508 -16.29899414 13.84259766 -15.74267578 13.40332031 C-12.53688834 10.82180361 -9.42924484 8.12524347 -6.3125 5.4375 C-5.68843262 4.90068604 -5.06436523 4.36387207 -4.42138672 3.81079102 C-2.94661425 2.54166165 -1.4731585 1.27100244 0 0 Z " fill="#253E8B" transform="translate(108,134)"/>
<path d="M0 0 C-0.66 0 -1.32 0 -2 0 C-2 0.66 -2 1.32 -2 2 C-2.73605469 2.39832031 -3.47210938 2.79664062 -4.23046875 3.20703125 C-5.20628906 3.73683594 -6.18210937 4.26664062 -7.1875 4.8125 C-8.63189453 5.59560547 -8.63189453 5.59560547 -10.10546875 6.39453125 C-12.77407878 7.87469147 -15.38678981 9.4249144 -18 11 C-19.32608822 11.68096422 -20.65686601 12.35330586 -22 13 C-21.39697281 10.19916296 -20.61421441 8.45693484 -18.28955078 6.72753906 C-16.08198846 5.44420402 -13.84445953 4.27069066 -11.5625 3.125 C-10.78583984 2.70992188 -10.00917969 2.29484375 -9.20898438 1.8671875 C-3.40180946 -1.13393649 -3.40180946 -1.13393649 0 0 Z " fill="#DADCDB" transform="translate(122,84)"/>
<path d="M0 0 C0.06058594 0.69867188 0.12117188 1.39734375 0.18359375 2.1171875 C0.26738281 3.02726563 0.35117188 3.93734375 0.4375 4.875 C0.51871094 5.77992188 0.59992188 6.68484375 0.68359375 7.6171875 C0.86989285 10.01110861 0.86989285 10.01110861 2 12 C2.13415472 14.6723621 2.04318541 17.32250488 2 20 C-0.93443671 17.54364568 -1.76747627 15.28439961 -2.75 11.625 C-3.01296875 10.68914062 -3.2759375 9.75328125 -3.546875 8.7890625 C-4.02889624 5.82213864 -3.90821555 3.85583334 -3 1 C-1 0 -1 0 0 0 Z " fill="#E5E5E4" transform="translate(70,176)"/>
<path d="M0 0 C0 0.33 0 0.66 0 1 C-0.83978394 1.03758423 -0.83978394 1.03758423 -1.6965332 1.07592773 C-4.23541305 1.19203745 -6.77393553 1.3146958 -9.3125 1.4375 C-10.63411133 1.49647461 -10.63411133 1.49647461 -11.98242188 1.55664062 C-13.25375977 1.61948242 -13.25375977 1.61948242 -14.55078125 1.68359375 C-15.72120972 1.73858032 -15.72120972 1.73858032 -16.9152832 1.79467773 C-19.19329101 1.94125263 -19.19329101 1.94125263 -22 3 C-22.33 2.67 -22.66 2.34 -23 2 C-24.77869726 1.84235595 -26.56318476 1.74899323 -28.34765625 1.68359375 C-29.42724609 1.64169922 -30.50683594 1.59980469 -31.61914062 1.55664062 C-33.32360352 1.49766602 -33.32360352 1.49766602 -35.0625 1.4375 C-36.20267578 1.39431641 -37.34285156 1.35113281 -38.51757812 1.30664062 C-41.34492195 1.20017161 -44.17235738 1.09815793 -47 1 C-47 0.67 -47 0.34 -47 0 C-31.24325859 -0.87185984 -15.75048943 -1.01666516 0 0 Z " fill="#CED0D7" transform="translate(56,287)"/>
<path d="M0 0 C0.33 0 0.66 0 1 0 C0.67 8.25 0.34 16.5 0 25 C-0.33 25 -0.66 25 -1 25 C-1.33 20.38 -1.66 15.76 -2 11 C-2.99 13.64 -3.98 16.28 -5 19 C-6.4216868 14.73493961 -4.65386682 11.79962257 -3.0625 7.8125 C-2.77181641 7.06291016 -2.48113281 6.31332031 -2.18164062 5.54101562 C-1.46274964 3.69075523 -0.73245347 1.84493352 0 0 Z " fill="#2180BC" transform="translate(58,148)"/>
<path d="M0 0 C-3.05913097 3.05913097 -4.54997696 3.96428389 -8.9375 4.3125 C-12.33914403 4.13822222 -15.65858244 3.66828351 -19 3 C-16.32623043 0.32623043 -14.33654001 0.36714587 -10.625 -0.1875 C-8.91183594 -0.45626953 -8.91183594 -0.45626953 -7.1640625 -0.73046875 C-4.3697362 -0.96850395 -2.61199462 -0.90712129 0 0 Z " fill="#DCDCDB" transform="translate(206,211)"/>
<path d="M0 0 C0 0.66 0 1.32 0 2 C-1.9375 2.5625 -1.9375 2.5625 -4 3 C-4.33 2.67 -4.66 2.34 -5 2 C-7.01964199 1.92755947 -9.04167124 1.91622812 -11.0625 1.9375 C-12.16722656 1.94652344 -13.27195313 1.95554688 -14.41015625 1.96484375 C-15.26480469 1.97644531 -16.11945313 1.98804688 -17 2 C-17 1.01 -17 0.02 -17 -1 C-14.73044814 -1.22185844 -12.45926245 -1.42705515 -10.1875 -1.625 C-8.29064453 -1.79902344 -8.29064453 -1.79902344 -6.35546875 -1.9765625 C-3 -2 -3 -2 0 0 Z " fill="#E6E8E9" transform="translate(189,149)"/>
<path d="M0 0 C0.66 0.33 1.32 0.66 2 1 C-4.49348336 7.7698018 -11.18662616 13.79108411 -19 19 C-17.36787715 14.60174687 -14.02454133 11.98885042 -10.625 8.9375 C-9.75875 8.14375977 -9.75875 8.14375977 -8.875 7.33398438 C-6.0170639 4.73378452 -3.1525298 2.24404215 0 0 Z " fill="#233E88" transform="translate(130,115)"/>
<path d="M0 0 C0.66 0.66 1.32 1.32 2 2 C-1.63 5.96 -5.26 9.92 -9 14 C-10.32 13.67 -11.64 13.34 -13 13 C-12.34 13 -11.68 13 -11 13 C-10.76539063 12.43796875 -10.53078125 11.8759375 -10.2890625 11.296875 C-8.69337 8.45364109 -6.71075457 6.51901873 -4.375 4.25 C-3.55773437 3.45078125 -2.74046875 2.6515625 -1.8984375 1.828125 C-0.95871094 0.92320312 -0.95871094 0.92320312 0 0 Z " fill="#E8EAEB" transform="translate(277,273)"/>
<path d="M0 0 C0.33 0 0.66 0 1 0 C2.70578439 13.96118914 1.6420858 27.99641441 1 42 C0.67 42 0.34 42 0 42 C-0.17020077 37.94760063 -0.33042311 33.89492989 -0.48217773 29.84179688 C-0.53490489 28.46864724 -0.59016104 27.09559191 -0.64819336 25.72265625 C-1.01255172 17.05409551 -0.97514065 8.62679169 0 0 Z " fill="#C5C7CB" transform="translate(171,213)"/>
<path d="M0 0 C0.66 0.33 1.32 0.66 2 1 C0.61392377 2.46761013 -0.78431195 3.92374189 -2.1875 5.375 C-2.96480469 6.18710938 -3.74210937 6.99921875 -4.54296875 7.8359375 C-6.987055 9.98859852 -8.92616557 11.00632706 -12 12 C-12 8 -12 8 -10.390625 6.3671875 C-9.33101563 5.62855469 -9.33101563 5.62855469 -8.25 4.875 C-7.55390625 4.37742187 -6.8578125 3.87984375 -6.140625 3.3671875 C-4.12295617 2.0785304 -2.21823518 0.90407064 0 0 Z " fill="#E7E7E7" transform="translate(114,88)"/>
<path d="M0 0 C0 4.62359973 -2.87692663 6.79145304 -6 10 C-8.01920548 11.85569167 -10.0725192 13.65293534 -12.16796875 15.421875 C-13.86190951 16.88104785 -15.44164484 18.39822318 -17 20 C-17.66 19.67 -18.32 19.34 -19 19 C-6.51480638 5.18223235 -6.51480638 5.18223235 0 0 Z " fill="#2D59A8" transform="translate(58,49)"/>
<path d="M0 0 C0.66 0.33 1.32 0.66 2 1 C1.06027344 1.99580078 1.06027344 1.99580078 0.1015625 3.01171875 C-0.71570312 3.89472656 -1.53296875 4.77773437 -2.375 5.6875 C-3.59316406 6.99267578 -3.59316406 6.99267578 -4.8359375 8.32421875 C-7.10040441 10.85329758 -7.10040441 10.85329758 -8.1015625 13.76953125 C-8.39804687 14.50558594 -8.69453125 15.24164063 -9 16 C-9.99 16.33 -10.98 16.66 -12 17 C-11.33501617 12.61110675 -9.81242323 9.0188515 -8 5 C-7.34 5.33 -6.68 5.66 -6 6 C-5.195625 5.195625 -4.39125 4.39125 -3.5625 3.5625 C-2.375 2.375 -1.1875 1.1875 0 0 Z " fill="#1A5DAB" transform="translate(29,90)"/>
<path d="M0 0 C2.97 0 5.94 0 9 0 C8.67 0.99 8.34 1.98 8 3 C7.01 3 6.02 3 5 3 C3.68373308 6.61973402 3 9.09567131 3 13 C2.34 13 1.68 13 1 13 C0.67 8.71 0.34 4.42 0 0 Z " fill="#D7D8D8" transform="translate(162,146)"/>
<path d="M0 0 C3.54243452 1.36591169 6.92627929 2.90931484 10.3125 4.625 C11.63701172 5.29402344 11.63701172 5.29402344 12.98828125 5.9765625 C13.98408203 6.48316406 13.98408203 6.48316406 15 7 C10.9154674 8.72251754 7.63026304 7.07280563 3.75 5.5625 C3.1003125 5.31951172 2.450625 5.07652344 1.78125 4.82617188 C0.18383183 4.22714006 -1.40860594 3.61485679 -3 3 C-2.01 2.01 -1.02 1.02 0 0 Z " fill="#225BA2" transform="translate(101,302)"/>
<path d="M0 0 C4.26230209 1.52225075 5.86557463 4.10833461 8 8 C8.47878587 10.75492421 8.42809084 13.40047637 8.3125 16.1875 C8.30283203 16.89841797 8.29316406 17.60933594 8.28320312 18.34179688 C8.21559594 21.46642455 7.99343384 24.01969849 7 27 C6.34 27 5.68 27 5 27 C5.165 26.38125 5.33 25.7625 5.5 25.125 C7.07481825 15.28238592 5.5248643 8.28729645 0 0 Z " fill="#28B6CA" transform="translate(192,142)"/>
<path d="M0 0 C1 2 1 2 0.546875 3.98828125 C-2.34411085 12.42032333 -2.34411085 12.42032333 -5 16 C-5.66 16 -6.32 16 -7 16 C-3.60695187 3.60695187 -3.60695187 3.60695187 0 0 Z " fill="#EAEBEA" transform="translate(80,121)"/>
<path d="M0 0 C0.99 0.33 1.98 0.66 3 1 C-1.80550473 5.9468431 -6.77184511 10.88592256 -13 14 C-13.66 13.67 -14.32 13.34 -15 13 C-14.33613281 12.48050781 -13.67226562 11.96101562 -12.98828125 11.42578125 C-8.41377883 7.81292606 -3.98940601 4.25536641 0 0 Z " fill="#3AC4CF" transform="translate(225,234)"/>
<path d="M0 0 C0.66 0 1.32 0 2 0 C2 0.99 2 1.98 2 3 C8.93 3.495 8.93 3.495 16 4 C16 4.66 16 5.32 16 6 C10.39 6 4.78 6 -1 6 C-0.67 4.02 -0.34 2.04 0 0 Z " fill="#D8DADD" transform="translate(280,77)"/>
<path d="M0 0 C3.68266103 0.59950296 7.34543185 1.24758891 11 2 C7.79989612 3.8133922 4.86716157 4.52213974 1.25 5.125 C0.26515625 5.29257812 -0.7196875 5.46015625 -1.734375 5.6328125 C-2.48203125 5.75398438 -3.2296875 5.87515625 -4 6 C-3.34 5.67 -2.68 5.34 -2 5 C-1.27840576 3.35636866 -0.60648579 1.68949614 0 0 Z " fill="#0A96C2" transform="translate(89,57)"/>
<path d="M0 0 C2.64 0.33 5.28 0.66 8 1 C7.06725891 2.12894876 6.12859878 3.25300876 5.1875 4.375 C4.66542969 5.00148437 4.14335937 5.62796875 3.60546875 6.2734375 C2 8 2 8 -1 10 C-0.67 6.7 -0.34 3.4 0 0 Z " fill="#DDDDDD" transform="translate(237,163)"/>
<path d="M0 0 C0 3 0 3 -1.2421875 4.60546875 C-1.78101563 5.12753906 -2.31984375 5.64960938 -2.875 6.1875 C-3.40867188 6.71730469 -3.94234375 7.24710938 -4.4921875 7.79296875 C-6 9 -6 9 -8 9 C-8 9.66 -8 10.32 -8 11 C-9.96147874 12.38938077 -11.96166576 13.7260411 -14 15 C-14.66 14.67 -15.32 14.34 -16 14 C-10.74557475 9.23363401 -5.49783089 4.48507257 0 0 Z " fill="#2E94C0" transform="translate(136,143)"/>
<path d="M0 0 C0.99 0.33 1.98 0.66 3 1 C3.14308594 1.61359375 3.28617188 2.2271875 3.43359375 2.859375 C4.20730157 5.78345698 5.61793178 6.54268251 8.0625 8.25 C8.79597656 8.77078125 9.52945313 9.2915625 10.28515625 9.828125 C11.13400391 10.40820312 11.13400391 10.40820312 12 11 C7.91518119 11 6.15295347 9.29880669 2.8125 7 C1.72582031 6.2575 0.63914063 5.515 -0.48046875 4.75 C-1.31191406 4.1725 -2.14335937 3.595 -3 3 C-2.01 2.01 -1.02 1.02 0 0 Z " fill="#2388BA" transform="translate(196,122)"/>
<path d="M0 0 C1.87939453 -0.2487793 1.87939453 -0.2487793 4.1328125 -0.07421875 C5.34130859 0.00795898 5.34130859 0.00795898 6.57421875 0.09179688 C7.41597656 0.16462891 8.25773438 0.23746094 9.125 0.3125 C10.39923828 0.4043457 10.39923828 0.4043457 11.69921875 0.49804688 C13.80053665 0.65151391 15.90045124 0.82397722 18 1 C18 1.33 18 1.66 18 2 C13.71702469 3.05619003 9.57014354 3.11702092 5.1875 3.0625 C4.49462891 3.05798828 3.80175781 3.05347656 3.08789062 3.04882812 C1.39188932 3.03713156 -0.30406703 3.01919924 -2 3 C-1.34 2.01 -0.68 1.02 0 0 Z " fill="#C3F3F6" transform="translate(151,261)"/>
<path d="M0 0 C0.33 0 0.66 0 1 0 C1.33 9.9 1.66 19.8 2 30 C1.01 30 0.02 30 -1 30 C-0.67 20.1 -0.34 10.2 0 0 Z " fill="#C2C3C7" transform="translate(100,170)"/>
<path d="M0 0 C0.99 0.33 1.98 0.66 3 1 C-1.59342466 5.59342466 -5.50841241 9.41668595 -12 11 C-9.20482229 8.12011993 -6.34554952 5.32435285 -3.375 2.625 C-2.80523437 2.10164062 -2.23546875 1.57828125 -1.6484375 1.0390625 C-1.10445312 0.69617188 -0.56046875 0.35328125 0 0 Z " fill="#21A5C4" transform="translate(149,132)"/>
<path d="M0 0 C2.97 0 5.94 0 9 0 C8.67 0.66 8.34 1.32 8 2 C7.401875 2.144375 6.80375 2.28875 6.1875 2.4375 C3.58864072 3.1057781 2.11030119 4.38210242 0 6 C-0.66 6 -1.32 6 -2 6 C-1.49396008 3.83125748 -1.00016187 2.00032373 0 0 Z " fill="#E3E3E4" transform="translate(277,83)"/>
<path d="M0 0 C0.99 0.495 0.99 0.495 2 1 C1.01 1.495 1.01 1.495 0 2 C0 1.34 0 0.68 0 0 Z M-2 2 C-1.01 2.495 -1.01 2.495 0 3 C-0.99 3.495 -0.99 3.495 -2 4 C-2 3.34 -2 2.68 -2 2 Z M-5.6875 4.6875 C-4.800625 4.790625 -3.91375 4.89375 -3 5 C-4 6.9375 -4 6.9375 -6 9 C-8.69924572 9.66549451 -11.20631637 9.81680763 -14 10 C-9.81538462 5.07692308 -9.81538462 5.07692308 -5.6875 4.6875 Z " fill="#E8E9E9" transform="translate(220,204)"/>
<path d="M0 0 C0 0.66 0 1.32 0 2 C-1.77260631 1.54857225 -3.5430368 1.08859477 -5.3125 0.625 C-6.79169922 0.24214844 -6.79169922 0.24214844 -8.30078125 -0.1484375 C-11 -1 -11 -1 -14 -3 C-7.97126615 -4.40203113 -5.05965502 -3.37310335 0 0 Z " fill="#2C7EB1" transform="translate(188,75)"/>
<path d="M0 0 C2 2 2 2 2.125 5.625 C2.08375 6.73875 2.0425 7.8525 2 9 C0.68 9 -0.64 9 -2 9 C-2.25 3.375 -2.25 3.375 0 0 Z " fill="#EFF1F4" transform="translate(169,150)"/>
<path d="M0 0 C0.33 0 0.66 0 1 0 C1.32712342 6.13053511 1.39366878 10.62669111 -2 16 C-3.3805087 12.23331402 -2.59568159 9.55210827 -1.5625 5.75 C-1.27503906 4.67234375 -0.98757812 3.5946875 -0.69140625 2.484375 C-0.46324219 1.66453125 -0.23507812 0.8446875 0 0 Z " fill="#359FBF" transform="translate(12,117)"/>
<path d="M0 0 C1.32 0 2.64 0 4 0 C3.67 2.64 3.34 5.28 3 8 C2.01 8.33 1.02 8.66 0 9 C0 6.03 0 3.06 0 0 Z " fill="#E0E3E3" transform="translate(163,160)"/>
<path d="M0 0 C-0.60328125 0.39832031 -1.2065625 0.79664063 -1.828125 1.20703125 C-2.62734375 1.73683594 -3.4265625 2.26664062 -4.25 2.8125 C-5.03890625 3.33457031 -5.8278125 3.85664063 -6.640625 4.39453125 C-8.81092481 5.87134122 -10.91413768 7.40689873 -13 9 C-11.81817091 4.40399799 -9.5133843 2.51425189 -5.8515625 -0.1796875 C-3.50952707 -1.21729813 -2.36546493 -0.84406458 0 0 Z " fill="#E4E4E6" transform="translate(265,289)"/>
<path d="M0 0 C5.28 0 10.56 0 16 0 C15.01 1.485 15.01 1.485 14 3 C9.05592426 3.58858045 4.72764755 2.30417863 0 1 C0 0.67 0 0.34 0 0 Z " fill="#E9EBEA" transform="translate(79,173)"/>
<path d="M0 0 C-2.36292656 2.52588702 -3.66462511 3.88820837 -7 5 C-7 4.34 -7 3.68 -7 3 C-9.64 3.33 -12.28 3.66 -15 4 C-10.34714182 0.89809455 -5.58467324 -0.33846504 0 0 Z " fill="#14A2D1" transform="translate(91,58)"/>
<path d="M0 0 C0.66 0 1.32 0 2 0 C2 1.65 2 3.3 2 5 C0.35 5.66 -1.3 6.32 -3 7 C-3 4 -3 4 -2 2 C-1.34 2 -0.68 2 0 2 C0 1.34 0 0.68 0 0 Z " fill="#E1E3E2" transform="translate(122,82)"/>
<path d="M0 0 C-3 2 -3 2 -6 2 C-6 3.32 -6 4.64 -6 6 C-6.66 6 -7.32 6 -8 6 C-8 4.02 -8 2.04 -8 0 C-4.94736336 -0.98120464 -3.05263664 -0.98120464 0 0 Z " fill="#D2D3D4" transform="translate(132,81)"/>
<path d="M0 0 C3.96 1.98 3.96 1.98 8 4 C7.67 4.99 7.34 5.98 7 7 C1.125 3.375 1.125 3.375 0 0 Z " fill="#E9EBEA" transform="translate(81,304)"/>
<path d="M0 0 C2.64 0.33 5.28 0.66 8 1 C7.01 1.495 7.01 1.495 6 2 C6.33 2.99 6.66 3.98 7 5 C3.74572241 4.43891766 2.12035493 3.54442592 0 1 C0 0.67 0 0.34 0 0 Z " fill="#E9EBEB" transform="translate(112,317)"/>
<path d="M0 0 C0.66 0.33 1.32 0.66 2 1 C1.34 2.65 0.68 4.3 0 6 C-1.32 6 -2.64 6 -4 6 C-4.33 5.01 -4.66 4.02 -5 3 C-2.625 1.4375 -2.625 1.4375 0 0 Z " fill="#DEDEDF" transform="translate(234,303)"/>
<path d="M0 0 C0 3 0 3 -1.53125 4.60546875 C-2.1809375 5.12753906 -2.830625 5.64960938 -3.5 6.1875 C-4.1496875 6.71730469 -4.799375 7.24710937 -5.46875 7.79296875 C-5.9740625 8.19128906 -6.479375 8.58960938 -7 9 C-7.66 8.67 -8.32 8.34 -9 8 C-6.03 5.36 -3.06 2.72 0 0 Z " fill="#D1F6F8" transform="translate(263,273)"/>
<path d="M0 0 C0.66 0.33 1.32 0.66 2 1 C0.68775452 4.93673644 -0.91910327 7.22719294 -4 10 C-2.8905928 6.51329166 -1.73662334 3.22515763 0 0 Z " fill="#E8E7E7" transform="translate(235,185)"/>
<path d="M0 0 C-1.3125 2 -1.3125 2 -3 4 C-3.99 4 -4.98 4 -6 4 C-6 2.68 -6 1.36 -6 0 C-3 -1 -3 -1 0 0 Z " fill="#E5E5E6" transform="translate(132,83)"/>
<path d="M0 0 C2.64 0 5.28 0 8 0 C5.82575883 2.50037734 4.26954202 3.43628586 1 4 C0.67 2.68 0.34 1.36 0 0 Z " fill="#E8E9E9" transform="translate(178,215)"/>
<path d="M0 0 C1.98 0 3.96 0 6 0 C6.66 1.65 7.32 3.3 8 5 C4.62496331 3.8141763 2.35277269 2.72426311 0 0 Z " fill="#F1F1F1" transform="translate(248,136)"/>
<path d="M0 0 C5.66153846 1.47692308 5.66153846 1.47692308 7.375 4.125 C7.684375 5.053125 7.684375 5.053125 8 6 C5.69 5.34 3.38 4.68 1 4 C0.67 2.68 0.34 1.36 0 0 Z " fill="#E6E8E7" transform="translate(187,84)"/>
<path d="M0 0 C0 0.66 0 1.32 0 2 C-3.375 2.625 -3.375 2.625 -7 3 C-7.66 2.34 -8.32 1.68 -9 1 C-5.846632 0.29925156 -3.27275026 0 0 0 Z " fill="#0DB3D3" transform="translate(84,61)"/>
<path d="M0 0 C0.33 0 0.66 0 1 0 C1.33 4.62 1.66 9.24 2 14 C1.01 14 0.02 14 -1 14 C-0.67 9.38 -0.34 4.76 0 0 Z " fill="#BBBEC3" transform="translate(171,213)"/>
<path d="M0 0 C-3.00617269 3.00617269 -5.82381598 2.59585316 -10 3 C-10 2.34 -10 1.68 -10 1 C-6.61981469 -0.04005702 -3.5219721 -0.08004482 0 0 Z " fill="#EDEDEB" transform="translate(200,215)"/>
<path d="M0 0 C0.33 0.66 0.66 1.32 1 2 C0.22265625 3.7265625 0.22265625 3.7265625 -0.9375 5.625 C-1.618125 6.73875 -2.29875 7.8525 -3 9 C-3.33 8.01 -3.66 7.02 -4 6 C-2.84338843 3.79192337 -1.77322566 1.77322566 0 0 Z " fill="#E3E4E4" transform="translate(80,121)"/>
<path d="M0 0 C0.99 0.33 1.98 0.66 3 1 C1.37660195 2.70884005 -0.29319053 4.37446717 -2 6 C-2.66 6 -3.32 6 -4 6 C-2.84826645 3.53199953 -1.95216435 1.95216435 0 0 Z " fill="#214E9F" transform="translate(158,91)"/>
<path d="M0 0 C-0.99 0.33 -1.98 0.66 -3 1 C-3.33 1.66 -3.66 2.32 -4 3 C-5.32 2.67 -6.64 2.34 -8 2 C-8 1.34 -8 0.68 -8 0 C-4.94736336 -0.98120464 -3.05263664 -0.98120464 0 0 Z " fill="#0AB9D0" transform="translate(220,301)"/>
<path d="M0 0 C4.875 2.75 4.875 2.75 6 5 C4.35 5 2.7 5 1 5 C0.67 3.35 0.34 1.7 0 0 Z " fill="#EDEFF0" transform="translate(49,282)"/>
<path d="M0 0 C2.475 0.495 2.475 0.495 5 1 C3.69593116 3.01920337 2.36176581 5.01924973 1 7 C0.67 7 0.34 7 0 7 C0 4.69 0 2.38 0 0 Z " fill="#D2D2D2" transform="translate(237,163)"/>
<path d="M0 0 C0.66 0.33 1.32 0.66 2 1 C-2.39453125 5.00390625 -2.39453125 5.00390625 -4 6 C-4.99 5.67 -5.98 5.34 -7 5 C-4.69 3.35 -2.38 1.7 0 0 Z " fill="#0973AE" transform="translate(58,75)"/>
<path d="M0 0 C-3.63423209 2.32590854 -6.77088331 2.16265833 -11 2 C-6.98764085 -0.6749061 -4.6342454 -1.48957888 0 0 Z " fill="#415FA2" transform="translate(126,19)"/>
</svg>
